<svg xmlns="http://www.w3.org/2000/svg" xmlns:xlink="http://www.w3.org/1999/xlink" width="500" zoomAndPan="magnify" viewBox="0 0 375 374.999991" height="500" preserveAspectRatio="xMidYMid meet" version="1.0"><path fill="#58595b" d="M 181.460938 113.328125 C 143.960938 113.328125 113.457031 143.835938 113.457031 181.332031 C 113.457031 218.832031 143.964844 249.332031 181.460938 249.332031 C 204.496094 249.332031 224.878906 237.8125 237.1875 220.234375 L 181.464844 220.234375 L 181.464844 192.726562 C 181.464844 178.109375 193.3125 166.261719 207.933594 166.261719 L 303.449219 166.261719 L 303.449219 315.476562 C 339.90625 282.308594 362.804688 234.496094 362.804688 181.332031 C 362.804688 157.277344 358.105469 134.328125 349.601562 113.328125 Z M 181.460938 113.328125 " fill-opacity="1" fill-rule="nonzero"/><path fill="#414042" d="M 181.460938 113.328125 C 143.960938 113.328125 113.457031 143.835938 113.457031 181.332031 C 113.457031 194.777344 117.398438 207.3125 124.160156 217.875 C 122.898438 212.707031 122.214844 207.308594 122.214844 201.753906 C 122.214844 164.253906 152.722656 133.75 190.214844 133.75 L 356.480469 133.75 L 374.878906 113.328125 Z M 181.460938 113.328125 " fill-opacity="1" fill-rule="nonzero"/><path fill="#d9d9d9" d="M 246.546875 284.421875 C 227.695312 296.367188 205.382812 303.3125 181.460938 303.3125 C 114.195312 303.3125 59.476562 248.59375 59.476562 181.332031 C 59.476562 114.070312 114.195312 59.347656 181.460938 59.347656 L 315.628906 59.347656 C 282.460938 22.886719 234.636719 -0.00390625 181.460938 -0.00390625 C 81.308594 -0.00390625 0.121094 81.183594 0.121094 181.335938 C 0.121094 281.484375 81.308594 362.675781 181.460938 362.675781 C 204.402344 362.675781 226.34375 358.402344 246.546875 350.628906 Z M 246.546875 284.421875 " fill-opacity="1" fill-rule="nonzero"/><path fill="#a6a6a6" d="M 246.546875 284.421875 C 227.695312 296.367188 205.382812 303.3125 181.460938 303.3125 C 138.539062 303.3125 100.757812 281.015625 79.011719 247.414062 C 98.152344 289.789062 140.777344 319.363281 190.214844 319.363281 C 202.679688 319.363281 214.703125 317.460938 226.027344 313.964844 C 226.027344 332.363281 226.027344 353.257812 226.027344 357.152344 C 231.378906 362.820312 239.648438 368.65625 246.546875 374.980469 C 246.546875 372.144531 246.546875 364.0625 246.546875 353.824219 C 246.546875 339.121094 246.546875 319.96875 246.546875 305.507812 Z M 246.546875 284.421875 " fill-opacity="1" fill-rule="nonzero"/></svg>